<?xml version="1.0" standalone="no"?>
<!DOCTYPE svg PUBLIC "-//W3C//DTD SVG 20010904//EN"
 "http://www.w3.org/TR/2001/REC-SVG-20010904/DTD/svg10.dtd">
<svg version="1.0" xmlns="http://www.w3.org/2000/svg"
 width="316.000000pt" height="168.000000pt" viewBox="0 0 316.000000 168.000000"
 preserveAspectRatio="xMidYMid meet">

<g transform="translate(0.000000,168.000000) scale(0.100000,-0.100000)"
fill="#000000" stroke="none">
<path d="M40 1655 c0 -9 9 -15 25 -15 14 0 28 -6 31 -13 10 -26 -23 -436 -36
-452 -7 -8 -21 -15 -31 -15 -11 0 -19 -6 -19 -13 0 -10 22 -13 85 -14 65 0 85
3 85 13 0 8 -10 14 -24 14 -27 0 -43 15 -47 45 -5 34 13 342 20 354 4 6 41
-84 82 -199 41 -115 78 -208 84 -207 5 2 46 96 90 210 44 113 84 209 88 213 4
4 7 -81 7 -189 0 -208 -4 -227 -51 -227 -10 0 -19 -6 -19 -14 0 -11 20 -13 97
-12 97 1 135 17 73 29 l-30 7 2 232 3 233 23 3 c12 2 22 10 22 18 0 11 -15 14
-63 14 l-63 0 -79 -196 c-55 -139 -80 -192 -86 -181 -8 14 -139 367 -139 374
0 2 -29 3 -65 3 -51 0 -65 -3 -65 -15z"/>
<path d="M1010 1655 c0 -9 9 -15 24 -15 13 0 26 -6 29 -14 9 -23 -23 -438 -34
-453 -6 -7 -20 -13 -30 -13 -11 0 -19 -6 -19 -13 0 -19 161 -18 168 1 2 7 -6
12 -22 12 -15 0 -31 9 -40 23 -13 19 -14 47 -4 205 7 100 14 182 17 182 3 0
39 -95 80 -210 41 -116 78 -209 84 -207 5 1 45 95 89 207 44 113 84 209 89
215 10 10 13 -345 3 -383 -4 -15 -17 -25 -35 -29 -16 -3 -29 -11 -29 -18 0 -9
24 -12 94 -11 102 1 127 10 79 27 -18 6 -33 20 -37 32 -3 12 -6 112 -6 222 0
208 3 225 42 225 10 0 18 7 18 15 0 12 -14 15 -64 15 l-64 0 -78 -195 c-43
-107 -81 -192 -85 -188 -4 5 -37 92 -75 196 l-68 187 -63 0 c-49 0 -63 -3 -63
-15z"/>
<path d="M2365 1601 c-3 -10 -24 -36 -48 -57 l-42 -39 28 -3 27 -3 0 -162 c0
-179 6 -200 59 -212 34 -7 98 17 107 40 10 24 -2 28 -29 10 -34 -22 -64 -6
-72 38 -3 17 -5 88 -3 157 l3 125 48 3 c32 2 47 8 47 17 0 9 -15 15 -47 17
l-48 3 -3 43 c-3 44 -16 56 -27 23z"/>
<path d="M745 1513 c-111 -58 -152 -192 -92 -296 59 -99 190 -125 273 -53 38
32 28 55 -11 24 -21 -17 -42 -23 -77 -23 -40 0 -52 5 -82 34 -93 90 -80 238
25 295 48 26 82 16 114 -34 33 -53 55 -53 55 0 0 34 -4 42 -30 55 -38 20 -136
19 -175 -2z"/>
<path d="M1692 1509 c-74 -37 -114 -114 -55 -107 18 2 32 14 45 38 26 47 55
70 89 70 37 0 51 -27 47 -93 l-3 -52 -80 -42 c-99 -53 -127 -83 -123 -131 6
-75 82 -91 164 -36 l38 26 19 -26 c11 -16 28 -26 43 -26 30 0 74 27 74 46 0
17 -12 18 -28 2 -28 -28 -37 10 -40 165 -4 182 -7 187 -91 187 -37 0 -71 -7
-99 -21z m128 -225 c0 -48 -4 -59 -29 -85 -36 -36 -83 -39 -105 -8 -25 36 0
75 79 120 28 16 51 29 53 29 1 0 2 -25 2 -56z"/>
<path d="M2053 1510 c-37 -22 -53 -48 -53 -87 0 -44 27 -73 99 -105 83 -38
101 -54 101 -90 0 -35 -39 -77 -72 -79 -66 -3 -94 15 -104 67 -12 67 -46 50
-42 -21 3 -33 8 -42 33 -54 41 -21 132 -19 173 2 62 34 89 110 58 167 -9 15
-46 40 -98 65 -76 37 -83 43 -86 72 -2 25 2 35 22 48 40 26 86 16 114 -25 32
-48 42 -48 42 -1 0 50 -17 61 -97 61 -40 0 -68 -6 -90 -20z"/>
<path d="M2612 1509 c-55 -28 -90 -73 -101 -135 -38 -202 173 -334 316 -197
45 43 31 55 -22 18 -97 -65 -222 5 -228 127 l-2 43 143 3 142 3 0 25 c0 42
-27 93 -62 114 -45 27 -129 27 -186 -1z m145 -14 c11 -8 24 -27 28 -42 10 -42
-14 -53 -117 -53 -104 0 -111 10 -49 71 32 32 46 39 78 39 21 0 48 -7 60 -15z"/>
<path d="M2969 1514 c-7 -8 -29 -24 -48 -34 l-36 -18 26 -10 c36 -14 39 -27
39 -148 0 -112 -9 -144 -40 -144 -11 0 -20 -7 -20 -15 0 -13 14 -15 85 -13 82
3 113 17 63 28 -22 6 -23 10 -26 125 -3 119 5 162 34 186 11 9 19 8 33 -5 27
-24 65 -17 69 12 8 57 -49 68 -103 21 l-35 -31 0 31 c0 34 -19 41 -41 15z"/>
<path d="M674 1006 c-9 -24 4 -48 23 -44 12 2 18 12 18 28 0 29 -32 41 -41 16z"/>
<path d="M1694 1006 c-9 -24 4 -48 23 -44 12 2 18 12 18 28 0 29 -32 41 -41
16z"/>
<path d="M10 1001 c0 -5 10 -11 23 -13 21 -3 22 -7 25 -135 3 -129 3 -132 29
-152 20 -17 40 -21 93 -21 57 0 71 4 94 25 25 24 26 27 26 150 0 118 1 127 20
132 39 10 19 23 -35 23 -60 0 -68 -5 -30 -20 25 -9 25 -11 25 -123 0 -99 -3
-118 -20 -139 -23 -30 -60 -39 -107 -26 -45 12 -53 36 -53 169 0 108 0 110 25
119 40 15 30 20 -45 20 -38 0 -70 -4 -70 -9z"/>
<path d="M2322 688 l3 -313 39 -74 c53 -98 144 -189 237 -235 39 -20 82 -36
94 -36 12 0 51 14 86 32 88 43 202 160 249 253 l35 70 3 308 3 307 -376 0
-376 0 3 -312z m138 251 c0 -5 5 -7 10 -4 6 3 10 -1 10 -9 0 -9 6 -16 14 -16
23 0 27 -29 6 -50 -11 -11 -24 -20 -30 -20 -5 0 -10 -7 -10 -15 0 -8 -4 -15
-10 -15 -5 0 -10 7 -10 15 0 8 -5 15 -11 15 -16 0 -38 31 -39 53 0 9 7 17 15
17 8 0 15 7 15 16 0 8 5 12 10 9 6 -3 10 -1 10 4 0 6 5 11 10 11 6 0 10 -5 10
-11z m230 -43 c0 -30 -4 -57 -8 -60 -5 -3 -28 -8 -50 -12 l-42 -7 0 61 c0 66
1 67 73 71 26 1 27 0 27 -53z m79 48 c31 -6 31 -7 31 -67 l0 -60 -42 7 c-22 4
-45 9 -50 12 -4 3 -8 30 -8 60 0 59 3 61 69 48z m213 -34 c8 0 15 -8 15 -17 0
-23 -25 -53 -45 -53 -8 0 -12 -6 -8 -15 3 -9 0 -15 -10 -15 -8 0 -12 5 -9 10
3 6 -2 13 -12 17 -42 16 -59 73 -21 73 12 0 18 3 15 7 -4 3 1 12 11 19 14 11
19 10 34 -6 9 -11 23 -20 30 -20z m66 -327 l-3 -198 -32 -60 c-62 -116 -160
-213 -261 -256 -58 -25 -68 -24 -142 13 -75 37 -170 129 -217 209 -50 85 -63
151 -63 331 l0 158 361 0 361 0 -4 -197z"/>
<path d="M2390 726 c0 -27 8 -41 41 -71 33 -29 37 -36 18 -30 -13 4 -35 14
-47 22 -29 18 -35 13 -26 -22 5 -20 20 -33 58 -51 50 -23 51 -23 18 -23 -18
-1 -42 4 -53 9 -14 8 -19 7 -19 -3 0 -27 27 -48 68 -54 38 -5 40 -7 25 -19
-10 -7 -33 -14 -50 -14 -39 0 -42 -13 -9 -35 18 -12 30 -13 50 -5 35 13 43 13
29 -1 -7 -7 -29 -15 -50 -18 l-38 -6 23 -23 c28 -28 31 -28 76 3 47 32 56 32
26 0 l-23 -25 22 0 c26 0 85 54 78 73 -2 6 -13 12 -25 12 -33 1 -89 68 -83
102 1 6 -3 14 -9 18 -8 5 -8 11 1 21 6 7 9 20 6 28 -3 8 1 20 9 26 22 19 18
26 -32 55 -25 15 -55 36 -65 46 -19 19 -19 18 -19 -15z"/>
<path d="M2975 740 c-11 -12 -39 -33 -62 -47 -40 -23 -58 -53 -32 -53 6 0 9
-9 6 -20 -3 -11 -1 -22 4 -25 10 -7 7 -65 -3 -65 -5 0 -8 -7 -8 -16 0 -24 -56
-75 -74 -68 -10 4 -18 -1 -22 -11 -9 -22 31 -62 75 -75 l33 -9 -26 24 c-34 32
-33 41 2 17 47 -33 66 -35 92 -7 l23 25 -29 0 c-17 0 -39 7 -50 15 -23 17 -14
19 19 4 18 -8 30 -8 46 0 31 17 27 41 -7 41 -16 0 -37 7 -48 15 -18 14 -17 14
14 15 21 0 42 9 57 25 31 30 34 50 6 35 -11 -5 -35 -10 -53 -10 l-33 1 48 25
c29 15 52 35 58 51 12 33 7 38 -23 20 -12 -8 -34 -18 -48 -22 -21 -6 -17 -1
18 31 38 34 43 44 40 73 l-3 33 -20 -22z"/>
<path d="M2725 739 c-4 -6 -14 -8 -22 -4 -24 9 -83 -6 -83 -21 0 -7 6 -11 14
-8 8 3 17 0 21 -7 6 -8 -1 -10 -24 -7 -17 2 -31 3 -31 1 0 -8 41 -43 51 -43 5
0 7 -5 3 -11 -4 -8 -1 -8 12 -2 22 11 34 11 52 -1 20 -12 23 -3 11 33 -9 26
-8 35 5 50 9 10 16 21 16 24 0 11 -18 8 -25 -4z"/>
<path d="M2830 687 c0 -14 -12 -35 -30 -50 -32 -29 -31 -57 1 -57 20 0 26 -24
9 -35 -13 -8 -13 -72 1 -80 6 -4 13 2 16 14 3 12 12 21 20 21 9 0 13 6 9 15
-3 8 -1 15 5 15 6 0 8 7 5 17 -4 9 -1 20 6 25 11 6 11 10 0 16 -7 5 -10 16 -6
25 3 10 1 17 -5 17 -6 0 -11 15 -11 34 0 19 -4 38 -10 41 -6 3 -10 -4 -10 -18z"/>
<path d="M2538 685 c0 -11 -1 -28 0 -37 1 -10 -5 -18 -13 -18 -12 0 -13 -4 -5
-19 7 -14 6 -21 -3 -24 -9 -3 -9 -7 0 -17 6 -7 9 -19 6 -26 -3 -8 0 -14 6 -14
6 0 8 -7 5 -15 -4 -9 0 -15 10 -15 10 0 16 -8 16 -21 0 -12 5 -19 13 -17 16 6
22 67 8 81 -18 18 -13 37 9 37 25 0 27 32 3 51 -9 8 -24 28 -35 44 -15 26 -18
27 -20 10z"/>
<path d="M2654 612 c-17 -11 -54 -89 -54 -114 0 -12 17 -49 37 -82 36 -59 36
-60 19 -89 -16 -29 -16 -29 8 -25 17 4 26 0 29 -11 4 -15 5 -15 6 0 1 12 8 15
29 11 26 -5 26 -4 10 15 -25 27 -23 36 17 107 19 35 35 69 35 77 0 8 -11 38
-25 67 -23 49 -26 52 -62 52 -21 0 -43 -4 -49 -8z m64 -50 c2 -12 9 -22 16
-22 8 0 18 -6 25 -13 13 -17 -4 -37 -32 -37 -15 0 -17 -5 -12 -28 8 -36 -15
-61 -35 -37 -9 10 -9 15 -1 15 6 0 11 -5 11 -12 0 -30 13 6 14 39 1 29 5 38
18 38 10 0 18 5 18 10 0 6 -8 10 -18 10 -11 0 -17 8 -17 22 0 13 -4 23 -10 23
-5 0 -10 -10 -10 -23 0 -16 -6 -22 -23 -23 -23 -1 -45 -14 -24 -14 7 0 12 -5
12 -11 0 -8 -5 -8 -15 1 -17 14 -3 40 21 40 8 0 14 8 14 18 0 39 43 43 48 4z
m-28 -88 c0 -13 -4 -24 -9 -24 -5 0 -7 9 -4 20 3 12 0 20 -6 20 -7 0 -9 5 -6
10 10 16 25 1 25 -26z"/>
<path d="M2588 379 l-27 -29 24 0 c18 0 23 -4 19 -15 -10 -26 12 -16 25 11 11
25 7 65 -7 63 -4 -1 -19 -14 -34 -30z"/>
<path d="M2752 389 c-11 -17 -11 -24 1 -37 8 -10 17 -24 20 -32 4 -10 6 -7 6
8 1 17 7 22 29 22 25 1 26 1 7 12 -11 6 -27 20 -35 30 -15 18 -15 18 -28 -3z"/>
<path d="M2465 341 c-3 -5 3 -12 12 -15 14 -6 14 -9 -5 -22 -12 -8 -22 -23
-21 -32 0 -14 2 -14 7 -2 4 8 17 15 30 16 26 1 27 -4 7 -30 -8 -11 -15 -27
-14 -35 0 -11 2 -12 6 -3 2 6 11 12 19 12 8 0 18 10 23 22 5 14 17 22 34 22
30 2 35 -15 12 -34 -18 -15 -19 -40 -2 -63 11 -16 12 -14 12 15 0 27 4 33 23
34 27 1 70 39 59 51 -4 4 -20 2 -35 -3 -24 -9 -30 -7 -44 11 -13 16 -14 25 -6
33 21 21 -2 26 -32 9 -24 -14 -30 -15 -37 -4 -10 17 -41 29 -48 18z"/>
<path d="M2900 343 c-8 -3 -21 -12 -27 -21 -11 -14 -15 -14 -31 1 -10 9 -24
17 -30 17 -16 0 -15 -30 1 -30 7 -1 5 -6 -5 -14 -24 -18 -23 -24 5 -22 13 1
35 -12 56 -33 37 -37 54 -28 27 14 -16 24 -16 25 8 25 13 0 27 -6 29 -12 4 -9
6 -8 6 2 1 9 -8 22 -18 29 -19 14 -18 46 2 34 6 -3 7 -1 3 5 -4 7 -8 12 -9 11
-1 0 -9 -3 -17 -6z"/>
<path d="M2720 272 c0 -16 36 -42 57 -42 24 0 34 -19 26 -49 -8 -30 6 -26 17
5 7 17 7 32 0 45 -17 32 -100 65 -100 41z"/>
<path d="M2672 239 c-7 -11 -25 -22 -40 -25 -24 -5 -28 -10 -24 -34 3 -22 9
-27 28 -26 17 1 22 5 18 18 -2 9 0 19 6 23 5 3 10 -3 10 -14 0 -11 5 -23 10
-26 16 -10 40 14 40 39 0 17 2 18 10 6 5 -8 7 -22 5 -31 -4 -11 1 -15 17 -14
30 2 38 55 8 55 -10 0 -27 10 -37 23 -24 29 -36 30 -51 6z"/>
<path d="M1813 943 c-38 -41 -38 -43 -18 -43 12 0 15 -17 15 -94 0 -52 3 -101
6 -110 11 -28 94 -18 94 11 0 13 -3 13 -15 3 -12 -10 -18 -10 -30 0 -11 9 -15
35 -15 101 l0 89 30 0 c17 0 30 5 30 10 0 6 -13 10 -29 10 -26 0 -30 4 -33 30
l-3 30 -32 -37z"/>
<path d="M382 900 c-22 -18 -22 -21 -8 -36 11 -10 16 -34 16 -74 0 -67 -7 -90
-26 -90 -8 0 -14 -4 -14 -10 0 -5 25 -10 55 -10 30 0 55 5 55 10 0 6 -7 10
-15 10 -19 0 -29 40 -23 101 6 55 30 89 64 89 37 0 54 -36 54 -113 0 -60 -2
-70 -20 -74 -39 -10 -19 -23 35 -23 30 0 55 5 55 10 0 6 -6 10 -14 10 -11 0
-15 21 -18 89 -2 70 -7 93 -22 110 -23 26 -81 28 -108 5 -16 -16 -18 -16 -24
0 -8 20 -14 20 -42 -4z"/>
<path d="M672 900 c-22 -18 -22 -21 -8 -36 11 -10 16 -34 16 -74 0 -67 -7 -90
-26 -90 -8 0 -14 -4 -14 -10 0 -5 25 -10 55 -10 30 0 55 5 55 10 0 6 -6 10
-14 10 -21 0 -26 23 -26 126 0 52 -3 94 -7 94 -5 -1 -19 -9 -31 -20z"/>
<path d="M760 914 c0 -4 7 -12 16 -19 9 -6 34 -56 54 -110 21 -55 42 -101 48
-103 5 -1 29 43 53 99 24 56 51 107 61 113 28 17 21 26 -20 26 -45 0 -58 -9
-36 -24 14 -11 13 -19 -12 -79 -15 -37 -31 -64 -34 -60 -4 5 -17 35 -29 68
-20 53 -20 61 -7 71 27 19 18 24 -39 24 -30 0 -55 -3 -55 -6z"/>
<path d="M1054 886 c-29 -29 -34 -41 -34 -83 0 -81 39 -122 116 -123 40 0 55
5 72 23 32 34 27 39 -17 17 -48 -25 -82 -15 -111 32 -37 61 -31 68 65 68 l85
0 0 28 c0 44 -37 72 -94 72 -41 0 -53 -5 -82 -34z m118 2 c20 -20 20 -22 3
-35 -26 -18 -105 -18 -105 1 0 17 46 56 66 56 8 0 24 -10 36 -22z"/>
<path d="M1295 895 c-23 -19 -26 -24 -12 -25 15 0 17 -11 17 -85 0 -69 -3 -85
-15 -85 -8 0 -15 -4 -15 -10 0 -5 25 -10 55 -10 54 0 74 13 35 23 -18 4 -20
13 -20 74 0 82 9 98 52 98 26 0 33 4 33 20 0 27 -40 32 -66 9 -17 -16 -19 -16
-19 -1 0 23 -10 21 -45 -8z"/>
<path d="M1480 900 c-24 -24 -26 -63 -4 -81 9 -8 35 -23 58 -34 47 -23 57 -52
26 -80 -26 -24 -72 -11 -80 23 -7 31 -24 33 -28 4 -5 -37 15 -52 70 -52 39 0
54 5 73 25 27 26 32 62 13 87 -7 9 -34 26 -60 38 -52 24 -63 51 -29 70 27 14
29 13 56 -16 21 -23 26 -24 31 -10 13 33 -3 46 -56 46 -37 0 -55 -5 -70 -20z"/>
<path d="M1685 895 c-23 -19 -26 -25 -12 -25 15 0 17 -11 17 -85 0 -69 -3 -85
-15 -85 -8 0 -15 -4 -15 -10 0 -5 25 -10 55 -10 30 0 55 5 55 10 0 6 -6 10
-14 10 -21 0 -26 23 -26 126 0 52 -3 94 -7 94 -5 -1 -21 -12 -38 -25z"/>
<path d="M1937 914 c-3 -4 2 -14 12 -23 11 -9 36 -60 56 -114 34 -88 36 -100
25 -128 -7 -17 -24 -35 -37 -40 -12 -4 -23 -15 -23 -23 0 -17 39 -32 49 -19 4
4 33 76 65 158 32 83 67 157 77 167 28 24 24 28 -26 28 -25 0 -45 -4 -45 -10
0 -5 7 -10 15 -10 8 0 15 -6 15 -14 0 -15 -39 -116 -50 -129 -4 -5 -20 22 -34
59 -25 61 -26 69 -12 80 9 6 16 14 16 18 0 8 -95 8 -103 0z"/>
</g>
</svg>
